<?xml version="1.0" encoding="UTF-8" standalone="no"?><!DOCTYPE svg PUBLIC "-//W3C//DTD SVG 1.1//EN" "http://www.w3.org/Graphics/SVG/1.1/DTD/svg11.dtd"><svg width="100%" height="100%" viewBox="0 0 512 512" version="1.1" xmlns="http://www.w3.org/2000/svg" xmlns:xlink="http://www.w3.org/1999/xlink" xml:space="preserve" xmlns:serif="http://www.serif.com/" style="fill-rule:evenodd;clip-rule:evenodd;stroke-linejoin:round;stroke-miterlimit:2;"><path d="M0,437.797l0,-363.578c0,-41 33.219,-74.219 74.219,-74.219l363.562,0c41,0 74.219,33.219 74.219,74.219l0,27.486l0,21.545l0,314.547c0,40.984 -33.219,74.203 -74.219,74.203l-363.563,0c-41,0 -74.219,-33.219 -74.219,-74.203Zm462,-336.399c0,-28.368 -23.031,-51.398 -51.398,-51.398l-309.203,0c-28.368,0 -51.398,23.031 -51.398,51.398l0,309.203c0,28.368 23.031,51.398 51.398,51.398l309.203,0c28.368,0 51.398,-23.031 51.398,-51.398l0,-309.203Z" style="fill:#4b4b4b;"/><path d="M412,138.923l0,234.154c0,21.482 -17.441,38.923 -38.923,38.923l-234.154,0c-21.482,0 -38.923,-17.441 -38.923,-38.923l0,-234.154c0,-21.482 17.441,-38.923 38.923,-38.923l234.154,0c21.482,0 38.923,17.441 38.923,38.923Z" style="fill:#4b4b4b;"/></svg>