<?xml version="1.0" encoding="UTF-8" standalone="no"?>
<!--?xml version="1.0" encoding="utf-8"?-->

<!-- Generator: Adobe Illustrator 18.0.0, SVG Export Plug-In . SVG Version: 6.00 Build 0)  -->

<svg
   version="1.1"
   id="_x32_"
   x="0px"
   y="0px"
   viewBox="0 0 512 512"
   style="width: 256px; height: 256px; opacity: 1;"
   xml:space="preserve"
   sodipodi:docname="questionDocument.svg"
   inkscape:version="1.3.2 (091e20e, 2023-11-25, custom)"
   xmlns:inkscape="http://www.inkscape.org/namespaces/inkscape"
   xmlns:sodipodi="http://sodipodi.sourceforge.net/DTD/sodipodi-0.dtd"
   xmlns="http://www.w3.org/2000/svg"
   xmlns:svg="http://www.w3.org/2000/svg"><defs
   id="defs1" /><sodipodi:namedview
   id="namedview1"
   pagecolor="#ffffff"
   bordercolor="#000000"
   borderopacity="0.25"
   inkscape:showpageshadow="2"
   inkscape:pageopacity="0.0"
   inkscape:pagecheckerboard="0"
   inkscape:deskcolor="#d1d1d1"
   inkscape:zoom="1.0947266"
   inkscape:cx="559.04369"
   inkscape:cy="372.23906"
   inkscape:window-width="2256"
   inkscape:window-height="1398"
   inkscape:window-x="-11"
   inkscape:window-y="-11"
   inkscape:window-maximized="1"
   inkscape:current-layer="_x32_" />
<style
   type="text/css"
   id="style1">
	.st0{fill:#4B4B4B;}
</style>
<path
   d="M 133.44141,0.9140625 C 119.79517,0.77299961 100.73395,8.8080607 91.083984,18.457031 L 17.818359,91.722656 C 8.168389,101.37263 0.27539063,120.43311 0.27539063,134.08008 v 354.02148 c 0,13.64697 11.16358837,24.8125 24.81054637,24.8125 H 313.70312 l 114.48047,3.65235 h 58.73047 c 13.64697,0 24.8125,-11.16358 24.8125,-24.81055 V 433.02344 383.40039 29.378906 C 511.72556,15.731948 500.5603,4.7074692 486.91406,4.5664062 Z M 265.63867,65.75 c 42.08519,0 76.89875,11.137631 104.44141,33.412109 27.54266,22.079101 41.31445,49.629451 41.31445,82.650391 0,16.41277 -3.85641,32.04488 -11.56836,46.89453 -7.49161,14.65426 -16.08428,26.08463 -25.7793,34.29102 -9.69501,8.01099 -30.1881,22.17551 -61.47656,42.49609 -8.81365,5.66632 -14.43172,11.23611 -16.85547,16.70703 -2.42375,5.27553 -3.74645,16.90106 -3.96679,34.87695 h -64.44922 v -39.5664 c 0,-13.28653 2.97461,-23.74111 8.92383,-31.36133 6.16955,-7.62022 19.50045,-18.46316 39.99218,-32.53125 31.28846,-21.29753 46.93164,-43.86552 46.93164,-67.70312 0,-17.9759 -6.1687,-32.23995 -18.50781,-42.79102 -12.11877,-10.55107 -27.98338,-15.82617 -47.59375,-15.82617 -45.3903,0 -72.16183,27.84309 -80.31445,83.52929 l -72.05274,-11.42968 c 4.40683,-41.61812 21.70387,-74.24842 51.89063,-97.89063 C 186.97545,77.670209 223.33315,65.75 265.63867,65.75 Z m -38.33984,332.94531 h 77.66992 v 73.27149 h -77.66992 z"
   style="fill:#4b4b4b"
   id="path2" />
</svg>
