<?xml version="1.0" encoding="UTF-8" standalone="no"?>
<!DOCTYPE svg PUBLIC "-//W3C//DTD SVG 1.1//EN" "http://www.w3.org/Graphics/SVG/1.1/DTD/svg11.dtd">
<svg width="100%" height="100%" viewBox="0 0 512 512" version="1.1" xmlns="http://www.w3.org/2000/svg" xmlns:xlink="http://www.w3.org/1999/xlink" xml:space="preserve" xmlns:serif="http://www.serif.com/" style="fill-rule:evenodd;clip-rule:evenodd;stroke-linejoin:round;stroke-miterlimit:2;">
    <path id="path2" d="M133.441,0.914C119.795,0.773 100.734,8.808 91.084,18.457L17.818,91.723C8.168,101.373 0.275,120.433 0.275,134.08L0.275,488.102C0.275,501.749 11.439,512.914 25.086,512.914L313.703,512.914L428.184,516.566L486.914,516.566C500.561,516.566 511.727,505.403 511.727,491.756L511.727,29.379C511.726,15.732 500.56,4.707 486.914,4.566L133.441,0.914ZM265.639,65.75C307.724,65.75 342.537,76.888 370.08,99.162C397.623,121.241 411.395,148.792 411.395,181.812C411.395,198.225 407.538,213.857 399.826,228.707C392.335,243.361 383.742,254.792 374.047,262.998C364.352,271.009 343.859,285.174 312.57,305.494C303.757,311.16 298.139,316.73 295.715,322.201C293.291,327.477 291.968,339.102 291.748,357.078L227.299,357.078L227.299,317.512C227.299,304.225 230.273,293.771 236.223,286.15C242.392,278.53 255.723,267.687 276.215,253.619C307.503,232.322 323.146,209.754 323.146,185.916C323.146,167.94 316.978,153.676 304.639,143.125C292.52,132.574 276.655,127.299 257.045,127.299C211.655,127.299 184.883,155.142 176.73,210.828L104.678,199.398C109.085,157.78 126.382,125.15 156.568,101.508C186.975,77.67 223.333,65.75 265.639,65.75ZM227.299,398.695L304.969,398.695L304.969,471.967L227.299,471.967L227.299,398.695Z" style="fill:rgb(75,75,75);fill-rule:nonzero;"/>
</svg>
