<?xml version="1.0" encoding="UTF-8" standalone="no"?>
<!--?xml version="1.0" encoding="utf-8"?-->

<!-- Generator: Adobe Illustrator 18.0.0, SVG Export Plug-In . SVG Version: 6.00 Build 0)  -->

<svg
   version="1.1"
   id="_x32_"
   x="0px"
   y="0px"
   viewBox="0 0 512 512"
   style="width: 256px; height: 256px; opacity: 1;"
   xml:space="preserve"
   sodipodi:docname="Systemverilog3.svg"
   inkscape:version="1.3.2 (091e20e, 2023-11-25, custom)"
   xmlns:inkscape="http://www.inkscape.org/namespaces/inkscape"
   xmlns:sodipodi="http://sodipodi.sourceforge.net/DTD/sodipodi-0.dtd"
   xmlns="http://www.w3.org/2000/svg"
   xmlns:svg="http://www.w3.org/2000/svg"><defs
   id="defs1" /><sodipodi:namedview
   id="namedview1"
   pagecolor="#ffffff"
   bordercolor="#000000"
   borderopacity="0.25"
   inkscape:showpageshadow="2"
   inkscape:pageopacity="0.0"
   inkscape:pagecheckerboard="0"
   inkscape:deskcolor="#d1d1d1"
   inkscape:zoom="1.5481772"
   inkscape:cx="359.13203"
   inkscape:cy="291.63329"
   inkscape:window-width="2256"
   inkscape:window-height="1398"
   inkscape:window-x="-11"
   inkscape:window-y="-11"
   inkscape:window-maximized="1"
   inkscape:current-layer="_x32_" />
<style
   type="text/css"
   id="style1">
	.st0{fill:#4B4B4B;}
</style>
<path
   d="M 133.44141,0.9140625 C 119.79515,0.77299933 100.73397,8.8080409 91.083984,18.457031 L 17.818359,91.722656 C 8.168369,101.37265 0.27539063,120.43309 0.27539063,134.08008 v 354.02148 c 0,13.64699 11.16356037,24.8125 24.81054637,24.8125 H 313.70312 l 114.48047,3.65235 h 58.73047 c 13.64699,0 24.8125,-11.16356 24.8125,-24.81055 V 433.02344 383.40039 29.378906 C 511.72556,15.73192 500.56032,4.7074694 486.91406,4.5664062 Z m 6.16211,125.3925775 c 54.08634,0 87.13045,22.53266 99.13085,67.59961 l -51.46679,11.79492 C 181.85894,183.8389 166.47797,172.9082 141.125,172.9082 c -30.76161,0 -46.142578,10.9307 -46.142578,32.79297 0,15.15017 12.423618,25.60225 37.269528,31.35547 L 187.26758,250 c 42.76201,9.97226 64.14258,37.7796 64.14258,83.42187 0,32.0263 -10.98641,55.99876 -32.95899,71.91602 -21.97257,15.72549 -48.08529,23.58789 -78.33984,23.58789 -26.19808,0 -49.355394,-5.94398 -69.468752,-17.83398 C 50.52922,399.01002 37.430416,380.69555 31.345703,356.14844 l 54.255859,-11.79492 c 8.281971,23.58823 26.535408,35.38281 54.761718,35.38281 35.83221,0 53.75,-11.9872 53.75,-35.95899 0,-7.67096 -2.78953,-13.99824 -8.36719,-18.98437 -5.57765,-4.98613 -12.1695,-8.34239 -19.77539,-10.06836 l -46.65039,-10.06836 c -51.720061,-11.31468 -77.580076,-39.9859 -77.580076,-86.01172 0,-25.69775 8.198829,-47.46382 24.59375,-65.29883 16.394923,-18.02678 40.817726,-27.03906 73.269536,-27.03906 z m 127.52539,6.04102 h 60.33984 l 59.83398,197.04687 58.31055,-197.04687 h 45.38281 l -86.96093,290.53711 h -47.91797 z"
   style="fill:#4b4b4b"
   id="path2" />
</svg>
