<?xml version="1.0" encoding="UTF-8" standalone="no"?>
<!--?xml version="1.0" encoding="utf-8"?-->

<!-- Generator: Adobe Illustrator 18.1.1, SVG Export Plug-In . SVG Version: 6.00 Build 0)  -->

<svg
   version="1.1"
   id="_x32_"
   x="0px"
   y="0px"
   viewBox="0 0 512 512"
   style="width: 256px; height: 256px; opacity: 1;"
   xml:space="preserve"
   sodipodi:docname="systemVerilogPaper.svg"
   inkscape:version="1.3.2 (091e20e, 2023-11-25, custom)"
   xmlns:inkscape="http://www.inkscape.org/namespaces/inkscape"
   xmlns:sodipodi="http://sodipodi.sourceforge.net/DTD/sodipodi-0.dtd"
   xmlns="http://www.w3.org/2000/svg"
   xmlns:svg="http://www.w3.org/2000/svg"><defs
   id="defs1" /><sodipodi:namedview
   id="namedview1"
   pagecolor="#ffffff"
   bordercolor="#000000"
   borderopacity="0.25"
   inkscape:showpageshadow="2"
   inkscape:pageopacity="0.0"
   inkscape:pagecheckerboard="0"
   inkscape:deskcolor="#d1d1d1"
   inkscape:zoom="1.0947266"
   inkscape:cx="299.6182"
   inkscape:cy="402.38359"
   inkscape:window-width="2256"
   inkscape:window-height="1398"
   inkscape:window-x="-11"
   inkscape:window-y="-11"
   inkscape:window-maximized="1"
   inkscape:current-layer="_x32_" />
<style
   type="text/css"
   id="style1">
	.st0{fill:#4B4B4B;}
</style>
<g
   id="g1">
	<path
   class="st0"
   d="M378.409,0H208.294h-13.175l-9.315,9.314L57.016,138.102l-9.314,9.314v13.176v265.513   c0,47.361,38.528,85.896,85.896,85.896h244.811c47.36,0,85.888-38.535,85.888-85.896V85.895C464.298,38.528,425.769,0,378.409,0z    M432.494,426.104c0,29.877-24.215,54.092-54.084,54.092H133.598c-29.877,0-54.092-24.215-54.092-54.092V160.591h83.717   c24.885,0,45.07-20.179,45.07-45.07V31.804h170.116c29.87,0,54.084,24.214,54.084,54.091V426.104z"
   style="fill: rgb(75, 75, 75);"
   id="path1" />
</g>
<text
   xml:space="preserve"
   style="font-size:456.354px;fill:#4b4b4b;fill-opacity:1;stroke-width:1.14089"
   x="59.113682"
   y="400.53403"
   id="text1"
   transform="scale(0.97600083,1.0245893)"><tspan
     sodipodi:role="line"
     id="tspan1"
     x="59.113682"
     y="400.53403"
     style="font-style:normal;font-variant:normal;font-weight:normal;font-stretch:normal;font-size:456.354px;font-family:'Franklin Gothic Medium';-inkscape-font-specification:'Franklin Gothic Medium, ';stroke-width:1.14089">sv</tspan></text></svg>
