<?xml version="1.0" encoding="UTF-8" standalone="no"?><!DOCTYPE svg PUBLIC "-//W3C//DTD SVG 1.1//EN" "http://www.w3.org/Graphics/SVG/1.1/DTD/svg11.dtd"><svg width="100%" height="100%" viewBox="0 0 512 512" version="1.1" xmlns="http://www.w3.org/2000/svg" xmlns:xlink="http://www.w3.org/1999/xlink" xml:space="preserve" xmlns:serif="http://www.serif.com/" style="fill-rule:evenodd;clip-rule:evenodd;stroke-linejoin:round;stroke-miterlimit:2;"><path id="path2" d="M133.441,0.914c-13.646,-0.141 -32.707,7.894 -42.357,17.543l-73.266,73.266c-9.65,9.65 -17.543,28.71 -17.543,42.357l-0,354.021c0,13.647 11.164,24.813 24.811,24.813l288.617,0l114.48,3.652l58.73,0c13.647,0 24.812,-11.164 24.812,-24.811l0,-462.377c-0.001,-13.647 -11.166,-24.671 -24.812,-24.812l-353.473,-3.652Zm6.162,125.393c54.086,0 87.13,22.533 99.131,67.6l-51.467,11.795c-5.409,-21.862 -20.79,-32.793 -46.143,-32.793c-30.762,0 -46.143,10.931 -46.143,32.793c0,15.15 12.424,25.602 37.27,31.355l55.016,12.943c42.762,9.972 64.143,37.78 64.143,83.422c0,32.026 -10.986,55.999 -32.959,71.916c-21.973,15.725 -48.085,23.588 -78.34,23.588c-26.198,0 -49.355,-5.944 -69.469,-17.834c-20.113,-12.082 -33.212,-30.396 -39.297,-54.943l54.256,-11.795c8.282,23.588 26.535,35.383 54.762,35.383c35.832,0 53.75,-11.987 53.75,-35.959c0,-7.671 -2.79,-13.998 -8.367,-18.984c-5.578,-4.986 -12.169,-8.342 -19.775,-10.068l-46.65,-10.068c-51.72,-11.315 -77.58,-39.986 -77.58,-86.012c0,-25.698 8.199,-47.464 24.594,-65.299c16.395,-18.027 40.818,-27.039 73.27,-27.039Zm127.525,6.041l60.34,0l59.834,197.047l58.311,-197.047l45.383,0l-86.961,290.537l-47.918,0l-88.988,-290.537Z" style="fill:#4b4b4b;fill-rule:nonzero;"/></svg>