<?xml version="1.0" encoding="UTF-8" standalone="no"?><!DOCTYPE svg PUBLIC "-//W3C//DTD SVG 1.1//EN" "http://www.w3.org/Graphics/SVG/1.1/DTD/svg11.dtd"><svg width="100%" height="100%" viewBox="0 0 512 512" version="1.1" xmlns="http://www.w3.org/2000/svg" xmlns:xlink="http://www.w3.org/1999/xlink" xml:space="preserve" xmlns:serif="http://www.serif.com/" style="fill-rule:evenodd;clip-rule:evenodd;stroke-linejoin:round;stroke-miterlimit:2;"><path id="path1" d="M133.316,0.914c-13.646,-0.141 -32.707,7.894 -42.357,17.543l-73.266,73.266c-9.65,9.65 -17.543,28.71 -17.543,42.357l-0,354.021c0,13.647 11.164,24.813 24.811,24.813l288.617,0l114.48,3.652l58.73,0c13.647,0 24.812,-11.164 24.812,-24.811l0,-462.377c-0.001,-13.647 -11.166,-24.671 -24.812,-24.812l-353.473,-3.652Zm137.27,127.197l51.059,0l0,111.668c12.69,-30.506 34.933,-45.758 66.732,-45.758c46.43,0 69.645,24.977 69.645,74.934l0,145.672l-51.057,0l0,-138.746c0,-14.973 -3.433,-25.467 -10.301,-31.484c-6.718,-6.157 -14.631,-9.236 -23.738,-9.236c-14.481,0 -26.649,5.389 -36.502,16.164c-9.853,10.775 -14.779,28.546 -14.779,53.314l0,109.988l-51.059,0l0,-286.516Zm-231.104,74.516l53.297,0l52.85,143.781l51.506,-143.781l40.084,0l-76.811,212l-42.324,0l-78.602,-212Z" style="fill:#4b4b4b;fill-rule:nonzero;"/></svg>